<svg width="500" height="340" xmlns="http://www.w3.org/2000/svg">
<defs>
<marker id="arrow" markerWidth="10" markerHeight="10" refX="9" refY="3" orient="auto" markerUnits="strokeWidth">
<path d="M0,0 L0,6 L9,3 z" fill="black" />
</marker>
</defs>
<style>
.wire { stroke: black; stroke-width: 2; fill: none; }
.node { fill: black; }
.text { font-family: sans-serif; font-size: 12px; }
.qtext { font-family: sans-serif; font-size: 14px; font-weight: bold; fill: #0000AA; }
</style>
<rect width="100%" height="100%" fill="white" />
<line x1="150" y1="150" x2="150" y2="185" class="wire" />
<line x1="150" y1="215" x2="150" y2="250" class="wire" />
<path d="M 150 185 Q 160 190 150 195 Q 160 200 150 205 Q 160 210 150 215 " class="wire" />
<text x="165" y="200" class="text">4 mH</text>
<line x1="50" y1="50" x2="85" y2="50" class="wire" />
<line x1="115" y1="50" x2="150" y2="50" class="wire" />
<circle cx="85" cy="50" r="2.5" class="node" />
<circle cx="115" cy="50" r="2.5" class="node" />
<line x1="85" y1="50" x2="115" y2="50" style="stroke:black; stroke-width:2;" />
<text x="100" y="30" class="text" font-size="11" text-anchor="middle">t=0 Opening</text>
<line x1="150" y1="150" x2="185" y2="150" class="wire" />
<line x1="215" y1="150" x2="250" y2="150" class="wire" />
<path d="M 185 150 L 190 155 L 195 145 L 200 155 L 205 145 L 210 155 L 215 150 " stroke="black" stroke-width="2" fill="none" />
<text x="200" y="140" class="text">600 Ohm</text>
<line x1="250" y1="150" x2="250" y2="185" class="wire" />
<line x1="250" y1="215" x2="250" y2="250" class="wire" />
<circle cx="250" cy="200" r="15" class="wire" />
<text x="265" y="200" class="text">20 V</text>
<text x="247" y="196" font-size="12" font-weight="bold">+</text><text x="247" y="210" font-size="12" font-weight="bold">-</text><line x1="50" y1="50" x2="50" y2="85" class="wire" />
<line x1="50" y1="115" x2="50" y2="150" class="wire" />
<path d="M 50 85 L 55 90 L 45 95 L 55 100 L 45 105 L 55 110 L 50 115 " stroke="black" stroke-width="2" fill="none" />
<text x="60" y="100" class="text">900 Ohm</text>
<line x1="150" y1="250" x2="185" y2="250" class="wire" />
<line x1="215" y1="250" x2="250" y2="250" class="wire" />
<path d="M 185 250 L 190 255 L 195 245 L 200 255 L 205 245 L 210 255 L 215 250 " stroke="black" stroke-width="2" fill="none" />
<text x="200" y="240" class="text">200 Ohm</text>
<line x1="150" y1="50" x2="185" y2="50" class="wire" />
<line x1="215" y1="50" x2="250" y2="50" class="wire" />
<circle cx="200" cy="50" r="15" class="wire" />
<text x="200" y="35" class="text">5 V</text>
<text x="190" y="54" font-size="12" font-weight="bold">+</text><text x="204" y="54" font-size="12" font-weight="bold">-</text><line x1="50" y1="150" x2="85" y2="150" class="wire" />
<line x1="115" y1="150" x2="150" y2="150" class="wire" />
<path d="M 85 150 L 90 155 L 95 145 L 100 155 L 105 145 L 110 155 L 115 150 " stroke="black" stroke-width="2" fill="none" />
<text x="100" y="140" class="text">400 Ohm</text>
<line x1="50" y1="250" x2="85" y2="250" class="wire" />
<line x1="115" y1="250" x2="150" y2="250" class="wire" />
<path d="M 85 250 L 90 255 L 95 245 L 100 255 L 105 245 L 110 255 L 115 250 " stroke="black" stroke-width="2" fill="none" />
<text x="100" y="240" class="text">600 Ohm</text>
<line x1="250" y1="50" x2="250" y2="85" class="wire" />
<line x1="250" y1="115" x2="250" y2="150" class="wire" />
<path d="M 250 85 L 255 90 L 245 95 L 255 100 L 245 105 L 255 110 L 250 115 " stroke="black" stroke-width="2" fill="none" />
<text x="260" y="100" class="text">400 Ohm</text>
<line x1="150" y1="50" x2="150" y2="85" class="wire" />
<line x1="150" y1="115" x2="150" y2="150" class="wire" />
<path d="M 150 85 L 155 90 L 145 95 L 155 100 L 145 105 L 155 110 L 150 115 " stroke="black" stroke-width="2" fill="none" />
<text x="160" y="100" class="text">1000 Ohm</text>
<circle cx="50" cy="50" r="4" class="node" />
<circle cx="150" cy="50" r="4" class="node" />
<circle cx="250" cy="50" r="4" class="node" />
<circle cx="50" cy="150" r="4" class="node" />
<circle cx="150" cy="150" r="4" class="node" />
<circle cx="250" cy="150" r="4" class="node" />
<circle cx="50" cy="250" r="4" class="node" />
<circle cx="150" cy="250" r="4" class="node" />
<circle cx="250" cy="250" r="4" class="node" />
</svg>
